<svg id="Layer_1_1_" enable-background="new 0 0 64 64" height="512" viewBox="0 0 64 64" width="512" xmlns="http://www.w3.org/2000/svg"><path d="m27.95 11c-.172-1.191-.934-2.185-1.99-2.672-.334-2.997-2.874-5.328-5.96-5.328-2.846 0-5.224 1.983-5.84 4.642-.686-.442-1.51-.688-2.399-.635-2.15.128-3.761 2.051-3.761 4.205v1.788c0 1.304.838 2.401 2 2.814l13 .186h2c1.657 0 3-1.343 3-3v-2z" fill="#dedede"/><path d="m24.868 16c-.168-.141-.381-.235-.633-.235h-2.684c-.839 0-1.305-.97-.781-1.625l2.812-3.515c.524-.655.058-1.625-.78-1.625h-6.772c-.379 0-.725.214-.894.553l-3.145 6.29 11.009.157z" fill="#c7c7c7"/><circle cx="23" cy="41" fill="#23a2e0" r="20"/><path d="m38.973 29c-3.649-4.85-9.436-8-15.973-8-.918 0-1.815.083-2.7.203-.178.567-.274 1.171-.274 1.797 0 3.314 2.686 6 6 6z" fill="#84c757"/><path d="m4.306 37c2.74-7.205 9.541-12.53 17.57-12.969 9.44-.517 17.55 5.518 20.205 13.969.439 1.398.728 2.862.85 4.373.032-.456.069-.909.069-1.373 0-2.091-.324-4.106-.919-6-2.655-8.451-10.766-14.486-20.205-13.969-8.029.439-14.831 5.764-17.57 12.969-.78 2.052-1.249 4.249-1.301 6.539-.016.697.009 1.385.063 2.065.142-1.952.565-3.834 1.238-5.604z" fill="#35b2f0"/><path d="m20.3 24.203c.885-.12 1.782-.203 2.7-.203 5.062 0 9.67 1.895 13.188 5h2.785c-3.649-4.85-9.436-8-15.973-8-.918 0-1.815.083-2.7.203-.178.567-.274 1.171-.274 1.797 0 .525.074 1.032.201 1.518.026-.104.041-.213.073-.315z" fill="#9dd975"/><path d="m29.025 37.5c0 1.381 1.119 2.5 2.5 2.5h11.425c-.086-1.732-.369-3.411-.868-5h-10.557c-1.38 0-2.5 1.119-2.5 2.5z" fill="#84c757"/><path d="m16.051 22.266 3.949-5.266h-5l4-5h-7l-4 8h5l-.95 4.275-1.05 4.725z" fill="#ffd970"/><path d="m18 56h-.5c-1.381 0-2.5-1.119-2.5-2.5s1.119-2.5 2.5-2.5h.5 11.99c2.209 0 4-1.791 4-4-.243-1.696-1.701-3-3.465-3h-20.5c-1.71 0-3.086-1.431-2.996-3.161.085-1.623 1.542-2.839 3.166-2.839h2.83c1.215 0 2.176-1.083 1.973-2.336-.16-.983-1.084-1.664-2.08-1.664h-8.634c-.816 2.182-1.284 4.533-1.284 7 0 11.046 8.954 20 20 20 5.064 0 9.675-1.897 13.198-5z" fill="#84c757"/><g fill="#dedede"><ellipse cx="50" cy="21" rx="10" ry="4"/><ellipse cx="51" cy="26.5" rx="7" ry="2.5"/><path d="m56.067 29.14-7.059-.093c-1.854-.024-3.287 1.623-3.005 3.456l1.462 9.497 1.1-3.849c.563-1.972 2.064-3.539 4.009-4.188l4.224-1.408c.921-.307 1.418-1.302 1.111-2.223-.259-.779-1.024-1.274-1.842-1.192z"/></g><path d="m40.247 20.126c2.165.556 4.631.874 7.253.874 4.249 0 8.096-.829 10.896-2.168-1.782-1.102-4.873-1.832-8.396-1.832-4.772 0-8.756 1.338-9.753 3.126z" fill="#c7c7c7"/><path d="m44.051 26.21c1.664.494 3.717.79 5.949.79 3.015 0 5.712-.536 7.545-1.38-.998-.946-3.548-1.62-6.545-1.62-3.591 0-6.546.966-6.949 2.21z" fill="#c7c7c7"/><ellipse cx="46.5" cy="10.5" fill="#dedede" rx="15.5" ry="7.5"/><path d="m47.036 34.456c-.282-1.833 1.15-3.48 3.005-3.456l7.059.093c.304-.03.59.041.856.155.062-.295.057-.609-.046-.916-.26-.779-1.025-1.275-1.842-1.193l-7.059-.093c-1.854-.024-3.287 1.623-3.005 3.456l1.461 9.498.475-1.663z" fill="#c7c7c7"/><path d="m40.819 2.511c-2.907.535-6.218 1.268-8.717 3.208-2.029 1.575-2.428 3.331-2.404 4.526.037 1.952 1.229 3.909 3.269 5.371 4.193 3.003 9.465 3.484 14.505 3.719.735.034 1.485.057 2.24.057 3.989 0 8.116-.63 10.995-3.51l-1.414-1.414c-2.874 2.874-7.544 3.063-11.729 2.869-4.741-.221-9.684-.661-13.434-3.347-1.521-1.09-2.408-2.469-2.434-3.783-.021-1.073.528-2.051 1.632-2.908 2.144-1.665 5.177-2.329 7.852-2.821 6.667-1.226 14.691.04 17.526 2.768.85.817.711 1.264.665 1.411-.414 1.336-3.884 2.693-6.189 3.078-3.902.652-8.224.364-13.201-.877-.585-.146-1.1-.289-1.481-.561-.293-.208-.48-.516-.457-.748.025-.254.303-.567.742-.838 1.116-.687 2.512-.886 3.729-.99 3.037-.261 6.069-.021 9.025.707.602.148.895.376.934.403-.022.047-.192.221-.659.388-2.244.797-4.774.694-6.946-.285l-.822 1.823c2.639 1.19 5.713 1.315 8.438.345 1.637-.582 1.943-1.575 1.98-2.117.078-1.168-.836-2.103-2.446-2.5-3.169-.781-6.426-1.037-9.674-.758-1.451.125-3.134.374-4.607 1.28-1.01.623-1.592 1.432-1.684 2.339-.097.956.396 1.943 1.287 2.579.666.475 1.4.684 2.157.873 5.249 1.309 9.832 1.606 14.016.91.067-.011 6.766-1.215 7.771-4.459.25-.808.247-2.062-1.189-3.444-3.349-3.221-11.815-4.668-19.276-3.294z"/><path d="m53.227 23.663c-3.79.35-7.296.149-10.423-.597-.804-.192-1.423-.399-1.835-.788-.596-.561-.268-1.312-.1-1.609l-1.738-.988c-.813 1.43-.629 3.021.467 4.053.777.732 1.776 1.046 2.741 1.277 2.284.545 4.748.819 7.359.819 1.207 0 2.445-.059 3.712-.176 4.206-.388 7.038-2.369 7.573-5.299l-1.967-.359c-.54 2.956-4.568 3.554-5.789 3.667z"/><path d="m55.935 27.808c-1.17.013-2.323.154-3.439.291-.838.103-1.629.199-2.432.248-2.903.175-5.019-.362-5.151-1.301l-1.98.281c.313 2.207 2.891 3.279 7.251 3.016.865-.051 1.725-.157 2.556-.259 1.11-.136 2.159-.264 3.218-.276.853-.036 1.007.194 1.021.218.042.067.021.279-.105.459-.46.652-2.077 1.128-3.505 1.548-2.517.739-5.369 1.578-5.369 4.142 0 2.651-1.814 5.418-1.833 5.446l1.665 1.108c.089-.132 2.168-3.289 2.168-6.554 0-1.067 2.089-1.681 3.932-2.223 1.909-.562 3.714-1.093 4.575-2.314.583-.827.649-1.901.166-2.673-.739-1.179-2.251-1.164-2.738-1.157z"/><path d="m43.611 44.975c.248-1.289.389-2.615.389-3.975 0-11.58-9.421-21-21-21-1.466 0-2.925.177-4.368.49l2.168-2.89c.228-.303.264-.708.095-1.047-.17-.339-.516-.553-.895-.553h-2.919l2.7-3.375c.24-.3.286-.711.12-1.058-.167-.347-.516-.567-.901-.567h-7c-.379 0-.725.214-.895.553l-1.445 2.891c-.403-.37-.66-.881-.66-1.444v-1.788c0-1.675 1.266-3.114 2.821-3.207.621-.035 1.254.127 1.797.477.273.177.616.208.918.086.302-.123.524-.384.599-.701.527-2.277 2.528-3.867 4.865-3.867 2.549 0 4.685 1.908 4.966 4.439.039.348.257.65.575.797.767.354 1.297 1.066 1.418 1.906.009.058.022.113.041.167v1.691c0 1.103-.897 2-2 2h-2v2h2c2.206 0 4-1.794 4-4v-2c0-.161-.042-.312-.115-.446-.256-1.197-.981-2.226-2.011-2.867-.619-3.277-3.485-5.687-6.874-5.687-2.858 0-5.357 1.699-6.438 4.253-.596-.199-1.226-.283-1.86-.245-2.637.158-4.702 2.444-4.702 5.204v1.788c0 1.328.676 2.542 1.744 3.275l-1.639 3.277c-.155.31-.139.678.044.973s.504.475.851.475h3.753l-.595 2.679c-5.739 3.929-9.158 10.368-9.158 17.321 0 11.58 9.421 21 21 21 10.033 0 18.434-7.077 20.502-16.498l1.205 1.205 2-2-1.414-1.414zm-1.718-5.975h-10.368c-.827 0-1.5-.673-1.5-1.5s.673-1.5 1.5-1.5h9.785c.267.974.474 1.971.583 3zm-5.075-11h-10.793c-2.757 0-5-2.243-5-5 0-.302.036-.6.089-.895.628-.064 1.256-.105 1.886-.105 5.446 0 10.351 2.316 13.818 6zm-27.2-9 3-6h4.301l-2.7 3.375c-.24.3-.286.711-.12 1.058.167.347.516.567.901.567h3l-5.018 6.69.994-4.474c.065-.296-.007-.606-.196-.842-.19-.236-.476-.374-.78-.374zm-5.618 22c0-2.072.34-4.092.975-6h8.051c.552 0 1 .449 1 1s-.448 1-1 1h-3c-2.206 0-4 1.794-4 4s1.794 4 4 4h20.5c1.379 0 2.5 1.122 2.5 2.5s-1.121 2.5-2.5 2.5h-13c-1.93 0-3.5 1.57-3.5 3.5s1.57 3.5 3.5 3.5h15.68c-2.952 1.89-6.448 3-10.206 3-10.477 0-19-8.523-19-19zm31.8 14h-18.275c-.827 0-1.5-.673-1.5-1.5s.673-1.5 1.5-1.5h13c2.481 0 4.5-2.019 4.5-4.5s-2.019-4.5-4.5-4.5h-20.5c-1.103 0-2-.897-2-2s.897-2 2-2h3c1.654 0 3-1.346 3-3s-1.346-3-3-3h-7.26c1.105-2.376 2.706-4.513 4.715-6.272l-.457 2.055c-.102.459.131.929.559 1.125.135.062.276.092.418.092.307 0 .606-.142.8-.4l4.861-6.481c.794-.282 1.598-.504 2.407-.679-.015.187-.042.372-.042.56 0 3.86 3.141 7 7 7h12.438c.88 1.234 1.616 2.573 2.184 4h-9.122c-1.93 0-3.5 1.57-3.5 3.5s1.57 3.5 3.5 3.5h10.474c0 5.543-2.401 10.524-6.2 14z"/></svg>